<?xml version="1.0" encoding="utf-8"?>
<!-- Generator: Adobe Illustrator 19.0.0, SVG Export Plug-In . SVG Version: 6.00 Build 0)  -->
<svg version="1.1" xmlns="http://www.w3.org/2000/svg" xmlns:xlink="http://www.w3.org/1999/xlink" x="0px" y="0px"
	 viewBox="0 0 430 300" style="enable-background:new 0 0 430 300;" xml:space="preserve">
<style type="text/css">
	.st0{clip-path:url(#XMLID_2_);}
	.st1{fill:#F7EB7F;}
	.st2{fill:#FBB03B;stroke:#F7EB7F;stroke-width:14;stroke-miterlimit:10;}
	.st3{fill:#FBB03B;}
	.st4{opacity:0.75;fill:#FFFFFF;}
</style>
<g id="Layer_2">
	<g id="XMLID_19_">
		<defs>
			<rect id="XMLID_18_" x="-0.3" width="430.3" height="300"/>
		</defs>
		<clipPath id="XMLID_2_">
			<use xlink:href="#XMLID_18_"  style="overflow:visible;"/>
		</clipPath>
		<g id="XMLID_5_" class="st0">
			<polygon id="XMLID_30_" class="st1" points="176,195.2 107.1,218.9 56.2,-83.5 88,-93.4 			"/>
			<polygon id="XMLID_29_" class="st1" points="115.3,220 61.1,247.7 -58.4,-59.3 -27.6,-71.9 			"/>
			<polygon id="XMLID_28_" class="st1" points="71.3,242.8 1.3,293.7 -124,16.3 -95.9,-1.6 			"/>
			<polygon id="XMLID_27_" class="st1" points="219.3,192.8 171.1,199.3 150.3,-101.9 183.4,-105.7 			"/>
			<polygon id="XMLID_26_" class="st1" points="272.7,196.4 214.8,193.6 258.6,-108.4 291.8,-105.7 			"/>
			<polygon id="XMLID_17_" class="st1" points="324.2,207.5 272,191.2 346.6,-104 379.5,-98.7 			"/>
			<polygon id="XMLID_16_" class="st1" points="370.5,236.2 321,209.8 474.2,-60.4 504.4,-46.4 			"/>
			<polygon id="XMLID_15_" class="st1" points="415.4,281.2 361.3,229.4 554,62.7 588.8,92.3 			"/>
			<path id="XMLID_40_" class="st2" d="M-20.8,310c0,0,239.9-293.5,479.7,0H-20.8z"/>
			<polygon id="XMLID_39_" class="st3" points="164.1,187.2 112.4,204.9 74.3,-21.7 98.2,-29.1 			"/>
			<polygon id="XMLID_38_" class="st3" points="102.5,208.6 61.9,229.4 -27.6,-0.6 -4.5,-10.1 			"/>
			<polygon id="XMLID_37_" class="st3" points="53.8,234.9 1.4,273 -92.5,65.2 -71.5,51.8 			"/>
			<polygon id="XMLID_36_" class="st3" points="211.7,180.3 175.5,185.2 160,-40.5 184.8,-43.3 			"/>
			<polygon id="XMLID_35_" class="st3" points="267.9,182.3 224.5,180.2 257.3,-46.1 282.1,-44 			"/>
			<polygon id="XMLID_34_" class="st3" points="319.8,196.4 280.8,184.2 336.6,-36.9 361.3,-33 			"/>
			<polygon id="XMLID_33_" class="st3" points="369.5,220.7 332.4,201 447.1,-1.4 469.8,9 			"/>
			<polygon id="XMLID_32_" class="st3" points="422.2,260.7 379.5,226.9 560.1,75.3 578,92.6 			"/>
		</g>
	</g>
</g>
<g id="Layer_1">
	<rect id="XMLID_20_" x="-0.3" class="st4" width="430.3" height="300"/>
</g>
</svg>
