<?xml version="1.0" encoding="utf-8"?>
<!-- Generator: Adobe Illustrator 19.0.0, SVG Export Plug-In . SVG Version: 6.00 Build 0)  -->
<svg version="1.1" xmlns="http://www.w3.org/2000/svg" xmlns:xlink="http://www.w3.org/1999/xlink" x="0px" y="0px"
	 viewBox="0 0 430 300" style="enable-background:new 0 0 430 300;" xml:space="preserve">
<style type="text/css">
	.st0{fill:#FFFFFF;}
	.st1{opacity:0.5;clip-path:url(#XMLID_8_);fill:#FFFFFF;}
	.st2{opacity:0.25;clip-path:url(#XMLID_8_);fill:#2C3E50;}
	.st3{clip-path:url(#XMLID_8_);fill:#1ABC9C;}
	.st4{clip-path:url(#XMLID_8_);fill:none;}
	.st5{opacity:0.65;fill:#FFFFFF;}
</style>
<g id="Layer_1">
	<rect id="XMLID_5_" y="0" class="st0" width="430" height="300"/>
</g>
<g id="Layer_2">
	<g id="XMLID_1_">
		<defs>
			<rect id="XMLID_4_" y="0" width="430" height="300"/>
		</defs>
		<clipPath id="XMLID_8_">
			<use xlink:href="#XMLID_4_"  style="overflow:visible;"/>
		</clipPath>
		<rect id="XMLID_2_" y="0" class="st1" width="430" height="300"/>
		<path id="XMLID_97_" class="st2" d="M96.2,322.6L86.7,308l110.2-170.1c4.2,4,7.1,10.1,7.1,10.1L96.2,322.6z"/>
		<path id="XMLID_28_" class="st3" d="M-11.6,70.7c0,0,397.7-243.4,444.3,185.3c0,0-9-58.8-74.1-31.1c0,0-9.2-59-74.4-31.5
			c0,0-5.6-56.8-73.9-30.4c0,0-10.2-60-73.2-31.9c0,0-14.9-57.4-73.6-30.6C63.5,100.5,63.3,47.5-11.6,70.7z"/>
		<rect id="XMLID_40_" y="0" class="st1" width="430" height="300"/>
		<rect id="XMLID_3_" y="0" class="st4" width="430" height="300"/>
	</g>
</g>
<g id="Layer_3">
	<rect id="XMLID_6_" y="0" class="st5" width="430" height="300"/>
</g>
</svg>
