<?xml version="1.0" encoding="utf-8"?>
<!-- Generator: Adobe Illustrator 19.0.0, SVG Export Plug-In . SVG Version: 6.00 Build 0)  -->
<svg version="1.1" xmlns="http://www.w3.org/2000/svg" xmlns:xlink="http://www.w3.org/1999/xlink" x="0px" y="0px"
	 viewBox="0 0 430 300" style="enable-background:new 0 0 430 300;" xml:space="preserve">
<style type="text/css">
	.st0{clip-path:url(#XMLID_15_);fill:#FFFFFF;}
	.st1{opacity:0.5;clip-path:url(#XMLID_15_);fill:#FFFFFF;}
	.st2{opacity:0.5;clip-path:url(#XMLID_15_);fill:#2C3E50;}
	.st3{clip-path:url(#XMLID_15_);fill:#1ABC9C;}
	.st4{clip-path:url(#XMLID_15_);fill:none;}
	.st5{clip-path:url(#XMLID_15_);fill:#C1272D;}
	.st6{clip-path:url(#XMLID_15_);fill:#F7931E;}
	.st7{clip-path:url(#XMLID_15_);fill:#FFFF00;}
	.st8{clip-path:url(#XMLID_15_);fill:#00FFFF;}
	.st9{clip-path:url(#XMLID_15_);fill:#0000FF;}
	.st10{opacity:0.85;fill:#FFFFFF;}
</style>
<g id="Layer_1">
</g>
<g id="Layer_2">
</g>
<g id="Layer_4">
	<g id="XMLID_7_">
		<defs>
			<rect id="XMLID_1_" y="0" width="430" height="300"/>
		</defs>
		<clipPath id="XMLID_15_">
			<use xlink:href="#XMLID_1_"  style="overflow:visible;"/>
		</clipPath>
		<rect id="XMLID_5_" y="0" class="st0" width="430" height="300"/>
		<rect id="XMLID_2_" y="0" class="st1" width="430" height="300"/>
		<path id="XMLID_97_" class="st2" d="M96.2,322.6L86.7,308l110.2-170.1c4.2,4,7.1,10.1,7.1,10.1L96.2,322.6z"/>
		<path id="XMLID_28_" class="st3" d="M-11.6,70.7c0,0,397.7-243.4,444.3,185.3c0,0-9-58.8-74.1-31.1c0,0-9.2-59-74.4-31.5
			c0,0-5.6-56.8-73.9-30.4c0,0-10.2-60-73.2-31.9c0,0-14.9-57.4-73.6-30.6C63.5,100.5,63.3,47.5-11.6,70.7z"/>
		<rect id="XMLID_3_" y="0" class="st4" width="430" height="300"/>
		<rect id="XMLID_4_" y="0" class="st4" width="430" height="300"/>
		<path id="XMLID_8_" class="st5" d="M288.4,14.2c0,0,124.1,27.8,144,240.4c0,0-8.9-57.6-73.8-29.7
			C358.6,224.9,369.4,119.5,288.4,14.2z"/>
		<path id="XMLID_9_" class="st6" d="M288.4,14.2c0,0,76.4,88.8,70.2,210.8c0,0-8.8-58.5-74.4-31.5C284.2,193.5,312,60,288.4,14.2z"
			/>
		<path id="XMLID_10_" class="st7" d="M288.4,14.2c0,0,24.3,38.9-4.2,179.3c0,0-6-55.5-73.9-30.4C210.3,163.1,263.8,86.2,288.4,14.2
			z"/>
		<path id="XMLID_11_" class="st3" d="M288.4,14.2c0,0-14.8,55.3-78.1,148.9c0,0-9.5-59.3-73.2-31.9
			C137.1,131.2,181.1,91.6,288.4,14.2z"/>
		<path id="XMLID_12_" class="st8" d="M288.4,14.2c0,0-105.7,75.3-151.3,117c0,0-15.5-57.5-73.6-30.6
			C63.5,100.5,146.8,28.3,288.4,14.2z"/>
		<path id="XMLID_13_" class="st9" d="M288.4,14.2c0,0-121.4,7.3-224.9,86.4c0,0,1.5-51.6-75.2-29.9
			C-11.6,70.7,159.8-32.7,288.4,14.2z"/>
	</g>
</g>
<g id="Layer_3">
	<rect id="XMLID_6_" y="0" class="st10" width="430" height="300"/>
</g>
</svg>
